<svg width="549" height="131" viewBox="0 0 549 131" fill="none" xmlns="http://www.w3.org/2000/svg">
<circle cx="65.5" cy="65.5" r="63" stroke="#9C9C9C" stroke-width="5"/>
<circle cx="274.5" cy="65.5" r="63" stroke="#9C9C9C" stroke-width="5"/>
<circle cx="483.5" cy="65.5" r="63" stroke="#9C9C9C" stroke-width="5"/>
<line x1="126" y1="63.5" x2="209" y2="63.5" stroke="#9C9C9C" stroke-width="5"/>
<line x1="339" y1="64.5" x2="418" y2="64.5" stroke="#9C9C9C" stroke-width="5"/>
<path d="M82.75 64.5C73.2625 64.5 65.5 72.2625 65.5 81.75C65.5 91.2375 73.2625 99 82.75 99C92.2375 99 100 91.2375 100 81.75C100 72.2625 92.2375 64.5 82.75 64.5ZM90.7281 83.475C90.2969 83.9062 89.8656 84.1219 89.2188 84.1219C88.5719 84.1219 88.1406 83.9062 87.7094 83.475L84.9062 80.6719V90.375C84.9062 91.6688 84.0438 92.5312 82.75 92.5312C81.4562 92.5312 80.5938 91.6688 80.5938 90.375V80.6719L77.7906 83.475C76.9281 84.3375 75.6344 84.3375 74.7719 83.475C73.9094 82.6125 73.9094 81.3187 74.7719 80.4562L81.2406 73.7719C81.6719 73.3406 82.1031 73.125 82.75 73.125C83.3969 73.125 83.8281 73.3406 84.2594 73.7719L90.7281 80.4562C91.5906 81.3187 91.5906 82.6125 90.7281 83.475Z" fill="#9C9C9C"/>
<path d="M67.6562 35.6063V47.25H79.3L67.6562 35.6063Z" fill="#9C9C9C"/>
<path d="M75.2031 51.5625H65.5C64.2062 51.5625 63.3438 50.7 63.3438 49.4062V34.3125H39.625C38.3312 34.3125 37.4688 35.175 37.4688 36.4688V92.5312C37.4688 93.825 38.3312 94.6875 39.625 94.6875H65.5C62.6969 91.0219 61.1875 86.7094 61.1875 81.75C61.1875 70.5375 69.8125 61.4813 80.5938 60.4031V56.9531C80.5938 53.9344 78.2219 51.5625 75.2031 51.5625Z" fill="#9C9C9C"/>
<path d="M283.738 31.2188H263.267C261.85 31.2188 260.717 30.0854 260.717 28.6688C260.717 27.2521 261.85 26.0833 263.267 26.0833H283.738C285.154 26.0833 286.288 27.2167 286.288 28.6333C286.288 30.05 285.154 31.2188 283.738 31.2188Z" fill="#9C9C9C"/>
<path d="M301.727 72.125H291.315C286.817 72.125 284.125 74.8167 284.125 79.3146V89.7271C284.125 94.225 286.817 96.9167 291.315 96.9167H301.727C306.225 96.9167 308.917 94.225 308.917 89.7271V79.3146C308.917 74.8167 306.225 72.125 301.727 72.125ZM300.735 87.9208L296.556 90.3292C295.706 90.825 294.856 91.0729 294.077 91.0729C293.475 91.0729 292.944 90.9312 292.448 90.6479C291.315 89.975 290.677 88.6646 290.677 86.9292V82.1125C290.677 80.3771 291.315 79.0667 292.448 78.3938C293.581 77.7208 295.033 77.8625 296.556 78.7125L300.735 81.1208C302.223 82.0063 303.073 83.2104 303.073 84.5208C303.073 85.8312 302.258 87.0354 300.735 87.9208Z" fill="#9C9C9C"/>
<path d="M280.584 89.7214V79.3089C280.584 72.8985 284.905 68.5777 291.315 68.5777H301.727C302.542 68.5777 303.321 68.6485 304.065 68.7902C304.136 67.9402 304.207 67.0902 304.207 66.2048C304.207 49.2403 290.43 35.4632 273.5 35.4632C256.571 35.4632 242.794 49.2403 242.794 66.2048C242.794 83.1339 256.571 96.911 273.5 96.911C276.511 96.911 279.38 96.4152 282.142 95.636C281.15 93.9714 280.584 91.9881 280.584 89.7214ZM276.157 65.036C276.157 66.4881 274.952 67.6923 273.5 67.6923C272.048 67.6923 270.844 66.4881 270.844 65.036V47.3278C270.844 45.8757 272.048 44.6716 273.5 44.6716C274.952 44.6716 276.157 45.8757 276.157 47.3278V65.036Z" fill="#9C9C9C"/>
<g clip-path="url(#clip0_209_29)">
<path fill-rule="evenodd" clip-rule="evenodd" d="M453.2 39.8301C453.2 37.3835 455.18 35.4 457.63 35.4H510.37C512.817 35.4 514.8 37.3798 514.8 39.8301V92.5699C514.8 95.0165 512.82 97 510.37 97H457.63C455.183 97 453.2 95.0202 453.2 92.5699V39.8301ZM457.6 53H510.4V92.6H457.6V53ZM466.4 33.2C466.4 31.985 467.342 31 468.621 31H472.979C474.206 31 475.2 32.0205 475.2 33.2V35.4H466.4V33.2ZM492.8 33.2C492.8 31.985 493.742 31 495.021 31H499.379C500.606 31 501.6 32.0205 501.6 33.2V35.4H492.8V33.2Z" fill="#9C9C9C"/>
</g>
<rect x="490" y="75" width="31" height="24" rx="3" fill="#9C9C9C"/>
<path d="M502 81L502 93" stroke="white" stroke-width="4" stroke-linecap="round"/>
<path d="M510 81L510 93" stroke="white" stroke-width="4" stroke-linecap="round"/>
<defs>
<clipPath id="clip0_209_29">
<rect width="66" height="66" fill="white" transform="translate(451 31)"/>
</clipPath>
</defs>
</svg>
